<svg width="9" height="10" viewBox="0 0 9 10" fill="none" xmlns="http://www.w3.org/2000/svg">
<path d="M4.49998 4.90625C6.63523 4.90625 8.82627 6.29454 8.96819 9.08358C8.97365 9.19109 8.93621 9.29637 8.8641 9.3763C8.79199 9.45623 8.69111 9.50427 8.5836 9.50987C7.45694 9.56729 2.23906 9.6025 0.416896 9.50987C0.309298 9.50441 0.208276 9.45643 0.136052 9.37648C0.0638282 9.29654 0.0263176 9.19118 0.0317713 9.08358C0.173688 6.29508 2.36473 4.90625 4.49998 4.90625ZM4.49998 0.03125C3.96126 0.03125 3.4446 0.245256 3.06367 0.626189C2.68274 1.00712 2.46873 1.52378 2.46873 2.0625C2.46873 2.60122 2.68274 3.11788 3.06367 3.49881C3.4446 3.87974 3.96126 4.09375 4.49998 4.09375C5.0387 4.09375 5.55536 3.87974 5.93629 3.49881C6.31722 3.11788 6.53123 2.60122 6.53123 2.0625C6.53123 1.52378 6.31722 1.00712 5.93629 0.626189C5.55536 0.245256 5.0387 0.03125 4.49998 0.03125Z" fill="#DADADA"/>
</svg>
