<svg width="11" height="11" viewBox="0 0 11 11" fill="none" xmlns="http://www.w3.org/2000/svg">
<path d="M9.16667 0H1.83333C0.820417 0 0 0.820417 0 1.83333V7.33333C0 8.34625 0.820417 9.16667 1.83333 9.16667H3.17167L4.89042 10.615C5.06458 10.7708 5.28458 10.8488 5.50458 10.8488C5.72458 10.8488 5.93083 10.7754 6.09583 10.6242L7.86042 9.16667H9.16667C10.1796 9.16667 11 8.34625 11 7.33333V1.83333C11 0.820417 10.1796 0 9.16667 0ZM7.86958 4.40917L6.875 5.22042L7.2875 6.47167C7.3425 6.64125 7.2875 6.82917 7.14542 6.93458C7.00333 7.04458 6.81083 7.04917 6.65958 6.95292L5.50458 6.20125L4.36792 6.96208C4.29917 7.00792 4.21667 7.03083 4.13417 7.03083C4.04708 7.03083 3.95542 7.00333 3.88208 6.94833C3.74 6.84292 3.68042 6.655 3.73542 6.48542L4.12958 5.22042L3.13042 4.40917C2.9975 4.29458 2.94708 4.11125 3.00667 3.94625C3.06625 3.78125 3.22667 3.67125 3.40083 3.67125H4.66125L5.10583 2.475C5.16542 2.31 5.32583 2.2 5.5 2.2C5.67417 2.2 5.83458 2.31 5.89417 2.475L6.33875 3.67125H7.59917C7.77333 3.67125 7.93375 3.78125 7.99333 3.94625C8.05292 4.11125 8.0025 4.29917 7.86958 4.41375V4.40917Z" fill="url(#paint0_linear_15_769)"/>
<defs>
<linearGradient id="paint0_linear_15_769" x1="5.5" y1="0" x2="5.5" y2="10.8488" gradientUnits="userSpaceOnUse">
<stop offset="0.39" stop-color="#FFB763"/>
<stop offset="1" stop-color="#E79739"/>
</linearGradient>
</defs>
</svg>
